<svg width="33" height="25" viewBox="0 0 33 25" fill="none" xmlns="http://www.w3.org/2000/svg">
<path d="M29.1328 0H3.86719C1.73482 0 0 1.73482 0 3.86719V20.3672C0 22.4996 1.73482 24.2344 3.86719 24.2344H29.1328C31.2652 24.2344 33 22.4996 33 20.3672V3.86719C33 1.73482 31.2652 0 29.1328 0ZM30.4219 20.3672C30.4219 21.078 29.8436 21.6562 29.1328 21.6562H3.86719C3.1564 21.6562 2.57812 21.078 2.57812 20.3672V9.41016H30.4219V20.3672ZM30.4219 5.54297H2.57812V3.86719C2.57812 3.1564 3.1564 2.57812 3.86719 2.57812H29.1328C29.8436 2.57812 30.4219 3.1564 30.4219 3.86719V5.54297Z" fill="#1FD8EE"/>
<path d="M21.3984 11.3438H4.38281V13.9219H21.3984V11.3438Z" fill="#1FD8EE"/>
</svg>
