<svg width="32" height="32" viewBox="0 0 32 32" fill="none" xmlns="http://www.w3.org/2000/svg">
<path d="M31.1309 8.81074L25.4461 3.84141C25.1432 3.53203 24.2022 3.23555 23.5705 3.98965L22.752 4.96934V1.31484C22.752 0.586523 22.1654 0 21.4371 0H9.77754C9.44883 0 9.13301 0.122461 8.88809 0.348047L0.425391 8.12109C0.154688 8.37246 0 8.72051 0 9.08789V30.2672C0 30.9955 0.586523 31.582 1.31484 31.582H21.4371C22.1654 31.582 22.752 30.9955 22.752 30.2672V20.915L31.2791 10.6412C31.7367 10.0934 31.6723 9.28125 31.1309 8.81074ZM8.72695 4.06699V8.59805L3.86719 8.53359L8.72695 4.06699ZM20.1223 28.9523H2.62969V11.1439C2.62969 11.1439 10.0354 11.2535 10.0418 11.2535C10.4672 11.2664 11.3566 10.9055 11.3566 9.93867V2.62969H20.1223V8.14043L11.4598 18.5754C11.2857 18.7816 11.1826 19.033 11.1633 19.2973L10.5768 25.9166C10.5188 27.1863 11.7949 27.4957 12.2203 27.3088L18.4916 25.6588C18.7559 25.5879 18.9943 25.4396 19.1684 25.227L20.1158 24.0861V28.9523H20.1223ZM17.4217 23.2225L13.3676 24.2859L13.7543 19.9418L24.7371 6.70957L28.4432 9.94512L17.4217 23.2225Z" fill="#1FD8EE"/>
</svg>
