<svg width="34" height="33" viewBox="0 0 34 33" fill="none" xmlns="http://www.w3.org/2000/svg">
<path d="M24.5148 11.2644C25.0336 11.768 25.0336 12.5842 24.5148 13.0875L15.6049 21.7356C15.0862 22.2388 14.2454 22.2388 13.7266 21.7356L9.4852 17.6186C8.9664 17.1153 8.9664 16.2991 9.4852 15.7958C10.0037 15.2923 10.8447 15.2923 11.3633 15.7958L14.6657 19.0011L22.6365 11.2644C23.1553 10.7612 23.9963 10.7612 24.5148 11.2644ZM34 16.5C34 25.6204 26.3954 33 17 33C7.60326 33 0 25.6191 0 16.5C0 7.37963 7.60455 0 17 0C26.3967 0 34 7.38089 34 16.5ZM31.3438 16.5C31.3438 8.80465 24.9275 2.57812 17 2.57812C9.07146 2.57812 2.65625 8.80566 2.65625 16.5C2.65625 24.1954 9.07249 30.4219 17 30.4219C24.9285 30.4219 31.3438 24.1943 31.3438 16.5Z" fill="#1FD8EE"/>
</svg>
