<svg width="33" height="31" viewBox="0 0 33 31" fill="none" xmlns="http://www.w3.org/2000/svg">
<path d="M30.0996 0H2.90039C1.30115 0 0 1.30115 0 2.90039V22.2363C0 23.8356 1.30115 25.1367 2.90039 25.1367H11.2914L10.0023 29.0039H6.83203C6.29803 29.0039 5.86523 29.4367 5.86523 29.9707C5.86523 30.5047 6.29803 30.9375 6.83203 30.9375H26.168C26.702 30.9375 27.1348 30.5047 27.1348 29.9707C27.1348 29.4367 26.702 29.0039 26.168 29.0039H22.9977L21.7086 25.1367H30.0996C31.6989 25.1367 33 23.8356 33 22.2363V2.90039C33 1.30115 31.6989 0 30.0996 0ZM12.0406 29.0039L13.3297 25.1367H19.6703L20.9594 29.0039H12.0406ZM31.0664 22.2363C31.0664 22.7693 30.6326 23.2031 30.0996 23.2031C27.2906 23.2031 5.73859 23.2031 2.90039 23.2031C2.36739 23.2031 1.93359 22.7693 1.93359 22.2363V21.2695H31.0664V22.2363ZM10.5431 13.7794L9.66369 12.9002L11.0308 11.5328L11.9102 12.4123C12.2219 12.724 12.7051 12.7854 13.085 12.5613C13.6283 12.2411 14.2084 11.9996 14.8089 11.844C15.2354 11.7337 15.5332 11.3488 15.5332 10.9082V9.66797H17.4668V10.9082C17.4668 11.3488 17.7646 11.7337 18.1911 11.844C18.7914 11.9996 19.3714 12.2411 19.9148 12.5616C20.2947 12.7854 20.7778 12.724 21.0895 12.4123L21.9689 11.5328L23.3363 12.9002L22.4569 13.7796C22.1452 14.0913 22.0838 14.5745 22.3078 14.9541C22.6283 15.4977 22.8695 16.0778 23.0251 16.678C23.1354 17.1045 23.5204 17.4023 23.961 17.4023H25.2012V19.3359H21.2363C21.3008 19.0192 21.334 18.6952 21.334 18.3691C21.334 15.7037 19.1655 13.5352 16.5 13.5352C13.8345 13.5352 11.666 15.7037 11.666 18.3691C11.666 18.6952 11.6992 19.0192 11.7637 19.3359H7.79883V17.4023H9.03905C9.47964 17.4023 9.8646 17.1045 9.97513 16.678C10.1305 16.0778 10.3719 15.4977 10.6922 14.9541C10.916 14.5745 10.8548 14.0913 10.5431 13.7794ZM19.4004 18.3691C19.4004 18.7002 19.343 19.0273 19.2342 19.3359H13.7658C13.657 19.0273 13.5996 18.7002 13.5996 18.3691C13.5996 16.7699 14.9008 15.4688 16.5 15.4688C18.0992 15.4688 19.4004 16.7699 19.4004 18.3691ZM31.0664 19.3359H27.1348V16.4355C27.1348 15.9015 26.702 15.4688 26.168 15.4688H24.6745C24.5743 15.1878 24.4592 14.9116 24.3298 14.6409L25.3872 13.5837C25.7646 13.2061 25.7646 12.594 25.387 12.2164L22.6525 9.48191C22.4712 9.30064 22.2253 9.19892 21.9689 9.19892C21.7126 9.19892 21.4667 9.30064 21.2854 9.48191L20.2282 10.5393C19.9576 10.4099 19.6814 10.2949 19.4004 10.1949V8.70117C19.4004 8.16717 18.9676 7.73438 18.4336 7.73438H14.5664C14.0324 7.73438 13.5996 8.16717 13.5996 8.70117V10.1949C13.3186 10.2949 13.0424 10.4099 12.7718 10.5393L11.7146 9.48191C11.5333 9.30064 11.2874 9.19892 11.0311 9.19892C10.7745 9.19892 10.5288 9.30064 10.3472 9.48191L7.61302 12.2164C7.23537 12.594 7.23537 13.2061 7.61302 13.5837L8.6702 14.6412C8.54079 14.9116 8.42599 15.1878 8.32578 15.4688H6.83203C6.29803 15.4688 5.86523 15.9018 5.86523 16.4355V19.3359H1.93359V2.90039C1.93359 2.36739 2.36739 1.93359 2.90039 1.93359H30.0996C30.6326 1.93359 31.0664 2.36739 31.0664 2.90039V19.3359Z" fill="#1FD8EE"/>
</svg>
