<svg width="32" height="33" viewBox="0 0 32 33" fill="none" xmlns="http://www.w3.org/2000/svg">
<path d="M21.369 3.77565C16.4873 -1.25855 8.54208 -1.25855 3.66044 3.77565C-1.22015 8.81093 -1.22015 17.0034 3.66044 22.0387C8.00768 26.5206 14.7783 27.0008 19.6567 23.501C19.7594 24.0019 19.9943 24.4799 20.3721 24.8695L27.4813 32.2009C28.5174 33.2671 30.1915 33.2671 31.2222 32.2009C32.2572 31.1336 32.2572 29.4072 31.2222 28.3431L24.113 21.0096C23.7373 20.6232 23.2727 20.3799 22.787 20.274C26.1829 15.242 25.7173 8.26091 21.369 3.77565ZM19.1245 19.724C15.4799 23.4824 9.54847 23.4824 5.90496 19.724C2.26251 15.9655 2.26251 9.84985 5.90496 6.0914C9.54847 2.33403 15.4799 2.33403 19.1245 6.0914C22.769 9.84985 22.769 15.9655 19.1245 19.724Z" fill="#1FD8EE"/>
</svg>
