<svg width="32" height="33" viewBox="0 0 32 33" fill="none" xmlns="http://www.w3.org/2000/svg">
<path d="M30.8682 9.86799H19.1696V2.22904C19.1696 1.0019 18.1673 0 16.9414 0H2.22863C1.0019 0 0 1.0023 0 2.22904V30.771C0 31.9973 1.0023 33 2.22863 33H16.9414C18.1669 33 19.1696 31.9973 19.1696 30.771V24.1856H24.5085H25.705L25.77 24.008L30.6353 11.0241L31.0681 9.86718L30.8682 9.86799ZM11.6013 11.8294L15.4979 16.1111L7.50695 22.7566L11.6013 11.8294ZM12.4401 10.9034H29.1519L18.3603 17.4048L12.4401 10.9034ZM7.23085 1.60739H11.938C12.0865 1.60739 12.2084 1.72809 12.2084 1.87704C12.2084 2.02478 12.0865 2.14629 11.938 2.14629H7.23085C7.0823 2.14629 6.96201 2.02478 6.96201 1.87704C6.96201 1.72809 7.0823 1.60739 7.23085 1.60739ZM9.58421 31.8871C8.96984 31.8871 8.4697 31.389 8.4697 30.7718C8.4697 30.1578 8.96863 29.6577 9.58421 29.6577C10.1998 29.6577 10.6999 30.1554 10.6999 30.7718C10.6999 31.3886 10.1998 31.8871 9.58421 31.8871ZM17.618 28.877H1.55007V3.5357H17.618V9.8688H11.498H11.3002L11.0192 10.6172H3.25394V12.3271H10.379L9.80825 13.8497H5.59035V15.1318H9.32789L8.8451 16.4199H6.388V17.4613H8.45476L6.0025 24.0043L5.93508 24.1848H7.12993H17.62L17.618 28.877ZM8.37443 23.1522L16.0768 16.7464L17.8694 18.7159L21.1367 16.7464L24.0394 23.1522H8.37443ZM25.2036 22.757L22.1915 16.1107L29.298 11.829L25.2036 22.757Z" fill="#1FD8EE"/>
</svg>
