<svg width="29" height="33" viewBox="0 0 29 33" fill="none" xmlns="http://www.w3.org/2000/svg">
<path d="M23.6092 20.3808V4.53589C23.6092 2.03481 21.513 0 18.9362 0H4.67308C2.09621 0 0 2.03481 0 4.53589V24.0385C0 26.5398 2.09621 28.5746 4.67308 28.5746H15.2402C16.1222 31.1429 18.6228 33 21.5615 33C25.2346 33 28.2227 30.0994 28.2227 26.5343C28.2227 23.6621 26.2834 21.2212 23.6092 20.3808ZM14.9004 26.5343C14.9004 26.5698 14.9007 26.6053 14.9012 26.641H4.67308C3.19476 26.641 1.99219 25.4736 1.99219 24.0385V4.53589C1.99219 3.10105 3.19476 1.93359 4.67308 1.93359H18.9362C20.4145 1.93359 21.6171 3.10105 21.6171 4.53589V20.0686C21.5986 20.0683 21.5802 20.0683 21.5615 20.0683C17.8887 20.0683 14.9004 22.9687 14.9004 26.5343ZM21.5615 31.0664C18.987 31.0664 16.8926 29.0331 16.8926 26.5343C16.8926 24.035 18.987 22.0019 21.5615 22.0019C24.1361 22.0019 26.2305 24.035 26.2305 26.5343C26.2305 29.0331 24.1361 31.0664 21.5615 31.0664Z" fill="#1FD8EE"/>
<path d="M22.8705 24.5057L20.4767 26.829L19.7808 26.1691C19.3873 25.796 18.7567 25.8033 18.3722 26.1852C17.9878 26.5672 17.9951 27.1792 18.3886 27.5523L19.7886 28.8799C19.9823 29.0637 20.2337 29.1554 20.4848 29.1554C20.7405 29.1554 20.9966 29.0599 21.1909 28.8704L24.2793 25.8728C24.6681 25.4954 24.6681 24.8831 24.2793 24.5057C23.8904 24.128 23.2596 24.128 22.8705 24.5057Z" fill="#1FD8EE"/>
<path d="M18.5885 3.84831H5.1654C4.61548 3.84831 4.16931 4.2811 4.16931 4.81511C4.16931 5.34886 4.61548 5.7819 5.1654 5.7819H18.5885C19.1387 5.7819 19.5846 5.34886 19.5846 4.81511C19.5846 4.2811 19.1387 3.84831 18.5885 3.84831Z" fill="#1FD8EE"/>
<path d="M5.1654 9.09984H16.5964C17.1465 9.09984 17.5925 8.66705 17.5925 8.13304C17.5925 7.59929 17.1465 7.16624 16.5964 7.16624H5.1654C4.61548 7.16624 4.16931 7.59929 4.16931 8.13304C4.16931 8.66705 4.61548 9.09984 5.1654 9.09984Z" fill="#1FD8EE"/>
<path d="M18.5162 10.4842H5.1654C4.61548 10.4842 4.16931 10.917 4.16931 11.451C4.16931 11.9848 4.61548 12.4178 5.1654 12.4178H18.5162C19.0661 12.4178 19.5123 11.9848 19.5123 11.451C19.5123 10.917 19.0664 10.4842 18.5162 10.4842Z" fill="#1FD8EE"/>
<path d="M8.4079 22.9029H5.1654C4.61548 22.9029 4.16931 23.3357 4.16931 23.8697C4.16931 24.4035 4.61548 24.8365 5.1654 24.8365H8.4079C8.95808 24.8365 9.40399 24.4035 9.40399 23.8697C9.40399 23.3357 8.95808 22.9029 8.4079 22.9029Z" fill="#1FD8EE"/>
</svg>
