<svg width="29" height="26" viewBox="0 0 29 26" fill="none" xmlns="http://www.w3.org/2000/svg">
<path d="M28.8472 10.9861C28.7501 10.7794 28.5428 10.6472 28.3134 10.6472H26.5697C25.4611 4.63085 20.1781 0.0574188 13.8461 0.0574188C6.7098 0.0574188 0.903198 5.86402 0.903198 13.0003C0.903198 20.1366 6.7092 25.9426 13.8461 25.9426C18.4517 25.9426 22.7469 23.4637 25.0554 19.4747C25.3806 18.9117 25.1888 18.1927 24.6252 17.8668C24.0629 17.541 23.3432 17.7328 23.0186 18.2958C21.1289 21.561 17.6141 23.59 13.8461 23.59C8.0073 23.59 3.25634 18.8397 3.25634 13.0015C3.25634 7.16212 8.0073 2.41175 13.8461 2.41175C18.8752 2.41175 23.0889 5.93908 24.1624 10.6477H22.4324C22.203 10.6477 21.9963 10.78 21.8986 10.9867C21.8015 11.1934 21.8331 11.4371 21.9796 11.6128L24.9213 15.1425C25.0333 15.2766 25.1983 15.354 25.3735 15.354C25.548 15.354 25.7137 15.276 25.8251 15.1425L28.7668 11.6128C28.9133 11.4365 28.9443 11.1928 28.8472 10.9861Z" fill="#2871A3"/>
<path d="M13.8461 2.99915C13.1961 2.99915 12.6695 3.52577 12.6695 4.17572V11.315C12.1375 11.6879 11.7872 12.3027 11.7872 13.0009C11.7872 14.1364 12.7112 15.0603 13.8467 15.0603C14.1576 15.0603 14.4507 14.9859 14.7153 14.8614L18.8079 17.2234C18.9938 17.3313 19.1952 17.3819 19.3953 17.3819C19.8016 17.3819 20.1972 17.171 20.4152 16.7933C20.7399 16.2315 20.5475 15.5113 19.9839 15.1866L15.8871 12.821C15.8323 12.199 15.5088 11.6557 15.0238 11.3162V4.17572C15.0227 3.52637 14.4954 2.99915 13.8461 2.99915ZM13.8461 13.8826C13.3594 13.8826 12.9638 13.4864 12.9638 13.0009C12.9638 12.5148 13.36 12.1186 13.8461 12.1186C14.3322 12.1186 14.7284 12.5148 14.7284 13.0009C14.7284 13.4864 14.3322 13.8826 13.8461 13.8826Z" fill="#2871A3"/>
</svg>
